<?xml version="1.0" standalone="no"?>
<!DOCTYPE svg PUBLIC "-//W3C//DTD SVG 20010904//EN"
 "http://www.w3.org/TR/2001/REC-SVG-20010904/DTD/svg10.dtd">
<svg version="1.0" xmlns="http://www.w3.org/2000/svg"
 width="275.000000pt" height="282.000000pt" viewBox="0 0 275.000000 282.000000"
 preserveAspectRatio="xMidYMid meet">
<metadata>
Created by potrace 1.10, written by Peter Selinger 2001-2011
</metadata>
<g transform="translate(0.000000,282.000000) scale(0.100000,-0.100000)"
fill="#000000" stroke="none">
<path d="M1355 2646 c-68 -40 -752 -435 -918 -530 l-157 -90 2 -639 3 -639
540 -310 c297 -170 549 -314 560 -319 17 -9 52 7 203 92 100 57 179 106 175
110 -5 4 -136 79 -293 167 -157 88 -404 227 -550 309 l-265 150 -3 431 -2 431
42 25 c24 13 158 91 298 172 140 81 290 168 332 192 l77 44 75 -41 c41 -23
211 -120 378 -216 l303 -174 3 -424 2 -423 -137 -77 c-76 -42 -162 -91 -190
-108 l-53 -31 0 430 0 430 -185 111 -186 112 -189 -107 -190 -108 0 -223 0
-222 108 -64 c59 -35 229 -132 377 -217 149 -84 352 -200 452 -256 99 -57 184
-104 187 -104 3 0 91 50 195 110 l190 111 1 622 c0 491 -2 626 -12 638 -7 9
-125 82 -263 161 -627 364 -844 488 -857 493 -7 3 -31 -6 -53 -19z"/>
</g>
</svg>
